# xmcd
#
# Track frame offsets:
#	150
#	15907
#	21885
#	39086
#	56314
#	68854
#	83722
#	92873
#	103122
#	114910
#
# Disc length: 1709 seconds
#
# Revision: 0
# Processed by: cddbd v1.4b42PL1 Copyright (c) Steve Scherf et al.
# Submitted via: EasyCDDAExtractor 4.5.0.2
#
DISCID=6a06ab0a
DTITLE=Eric Clapton - Lonely Years
DYEAR=1900
DGENRE=Soul
TTITLE0=Louise
TTITLE1=Chocker
TTITLE2=They Call It Stormy Monday
TTITLE3=Early In The Morning
TTITLE4=Good Morning Little School Girl
TTITLE5=Lonely Years
TTITLE6=I Ain't Got You
TTITLE7=I Wish You Would
TTITLE8=Got The Hurry
TTITLE9=Too Much Monkey Business
EXTD=
EXTT0=
EXTT1=
EXTT2=
EXTT3=
EXTT4=
EXTT5=
EXTT6=
EXTT7=
EXTT8=
EXTT9=
PLAYORDER=
